<?xml version="1.0" encoding="UTF-8" standalone="no"?>
<svg width="80px" height="80px" viewBox="0 0 80 80" version="1.1" xmlns="http://www.w3.org/2000/svg" xmlns:xlink="http://www.w3.org/1999/xlink">
    <!-- Generator: sketchtool 3.8.3 (29802) - http://www.bohemiancoding.com/sketch -->
    <title>4E253289-FB67-4027-A1A0-9F09A76E7C22</title>
    <desc>Created with sketchtool.</desc>
    <defs></defs>
    <g id="Page-1" stroke="none" stroke-width="1" fill="none" fill-rule="evenodd">
        <g id="UI-inactive" transform="translate(-389.000000, -735.000000)">
            <g id="UI" transform="translate(379.000000, 431.000000)">
                <g id="text-input" transform="translate(0.000000, 304.000000)">
                    <g id="mic-icon-inactive" transform="translate(10.000000, 0.000000)">
                        <circle id="Oval-1" fill="#323232" cx="40" cy="40" r="40"></circle>
                        <path d="M31.7450172,34.2481147 C31.7450172,36.0324096 31.7399773,37.8167044 31.7475371,39.6004965 C31.750057,40.1852062 31.7288897,40.7779601 31.8130551,41.3526147 C32.449588,45.7065153 36.2965042,48.818599 40.7905369,48.4847664 C44.9806668,48.173558 48.3608931,44.5727917 48.3845803,40.2480512 C48.4062517,36.2621708 48.3865963,32.2757877 48.3916361,28.2899073 C48.3926441,27.5880545 48.3130145,26.898268 48.1356118,26.2220559 C47.0792596,22.1979658 43.1884967,19.5604874 39.0512853,20.0607335 C34.9181057,20.5604768 31.7923918,24.0456084 31.750057,28.2275651 C31.7293936,30.2350853 31.7460251,32.2416 31.7460251,34.2486175 C31.7455212,34.2481147 31.7450172,34.2481147 31.7450172,34.2481147 L31.7450172,34.2481147 Z M34.1157618,34.2707389 C34.1157618,32.2652297 34.0961064,30.2592178 34.1202977,28.2542114 C34.1616244,24.8485159 36.999563,22.2140541 40.4105324,22.385998 C43.4052102,22.536826 45.9528535,25.0310177 45.9987162,28.0214335 C46.0632262,32.1707109 46.0637302,36.322502 46.0002281,40.4722821 C45.9523495,43.6396694 43.2288155,46.1474357 40.0159122,46.1298391 C36.8221604,46.1122425 34.1802719,43.5516864 34.1243296,40.3712274 C34.0880427,38.3385692 34.1172738,36.3044027 34.1172738,34.2712417 C34.1167698,34.2707389 34.1162658,34.2707389 34.1157618,34.2707389 Z M52.9854579,42.6059951 C52.249136,42.5989564 51.5067664,42.5250507 50.789596,42.652249 C49.3653348,47.9639072 44.6142698,50.8185778 40.321327,50.8784062 C37.9883813,50.9105829 35.8484617,50.3022434 33.909128,49.0156808 C31.5827341,47.4737163 30.0627158,45.3400033 29.3420175,42.629122 C28.561345,42.5652715 27.8194793,42.5592384 27,42.6361607 C27.4092357,44.8578566 28.3456395,46.7562779 29.7557891,48.4239325 C32.1139341,51.211736 35.1459068,52.7692862 38.7408306,53.2182507 C38.9247851,54.0548432 38.9061376,55.0156173 38.6884162,55.6470837 C38.3981209,55.6470837 38.0932101,55.6490948 37.7877953,55.646581 C37.2298841,55.6420561 36.8156086,55.8703091 36.5938552,56.3931794 C36.3660541,56.9291214 36.5424488,57.3680308 36.9441247,57.7456035 C37.0227463,57.8190064 37.131607,57.8707907 37.1351349,58 L43.0040383,58 C43.045869,57.9331329 43.0740922,57.8516858 43.1300345,57.8014098 C43.5674933,57.415793 43.7811829,56.9663257 43.5387662,56.3906656 C43.3013893,55.8270718 42.8452831,55.6365258 42.2606607,55.6400451 C41.9623016,55.6415534 41.6488231,55.7169674 41.2884739,55.5163662 C41.2788982,54.7853533 41.1972527,54.0221638 41.3434083,53.2172452 C44.2478729,52.8773795 46.7965241,51.7823685 48.9772665,49.8673561 C51.2245349,47.8945263 53.1890677,44.3561022 52.9854579,42.6059951 Z" id="Combined-Shape" fill="#FFFFFF" opacity="0.4"></path>
                    </g>
                </g>
            </g>
        </g>
    </g>
</svg>